# xmcd
#
# Track frame offsets:
#	150
#	36570
#	56587
#	78965
#	103312
#	121410
#	139615
#	162450
#	181545
#	202787
#	223612
#	240505
#	264175
#
# Disc length: 3820
#
# Revision: 1
# Processed by: cddbd v1.5.1PL0 Copyright (c) Steve Scherf et al.
# Submitted via: CD-DA_X-Tractor v0.21
# Normalized: r0:DSETVAR1,TDELIM( - )
#
DISCID=ad0eea0d
DTITLE=Various Artist - The Bomb R&B Sampler
DYEAR=1900
DGENRE=
TTITLE0=Blackstreet - No Diggity
TTITLE1=Snoopy Doggy Dogg - Snoop's Upside ya head
TTITLE2=K-ci and Jojo - How Could you
TTITLE3=Rahsaan Patterson - Soul Free
TTITLE4=Mary J Blige - I can love you
TTITLE5=Patti La Belle - When you talk about love
TTITLE6=New Edition - One More Day
TTITLE7=Erykah Badu - Next Lifetime
TTITLE8=Heavy D - You can get it
TTITLE9=Makaveli - Hail Mary
TTITLE10=Shaquille O'Neal - Straight Playin
TTITLE11=Dr Dre - Been there, done that
TTITLE12=Nate Dogg - Never leave me alone
EXTD=
EXTT0=
EXTT1=
EXTT2=
EXTT3=
EXTT4=
EXTT5=
EXTT6=
EXTT7=
EXTT8=
EXTT9=
EXTT10=
EXTT11=
EXTT12=
PLAYORDER=
